<svg xmlns="http://www.w3.org/2000/svg" viewBox="0 0 500 500"><g id="freepik--background-complete--inject-52"><rect y="382.4" width="500" height="0.25" style="fill:#ebebeb"></rect><rect x="64.67" y="391.92" width="20.91" height="0.25" style="fill:#ebebeb"></rect><rect x="171.14" y="389.21" width="24.19" height="0.25" style="fill:#ebebeb"></rect><rect x="118.81" y="395.18" width="19.19" height="0.25" style="fill:#ebebeb"></rect><rect x="422" y="399.53" width="27.9" height="0.25" style="fill:#ebebeb"></rect><rect x="387.71" y="392.17" width="21.63" height="0.25" style="fill:#ebebeb"></rect><rect x="277.21" y="395.31" width="48.45" height="0.25" style="fill:#ebebeb"></rect><path d="M237,337.8H43.91a5.71,5.71,0,0,1-5.7-5.71V60.66A5.71,5.71,0,0,1,43.91,55H237a5.71,5.71,0,0,1,5.71,5.71V332.09A5.71,5.71,0,0,1,237,337.8ZM43.91,55.2a5.46,5.46,0,0,0-5.45,5.46V332.09a5.46,5.46,0,0,0,5.45,5.46H237a5.47,5.47,0,0,0,5.46-5.46V60.66A5.47,5.47,0,0,0,237,55.2Z" style="fill:#ebebeb"></path><path d="M453.31,337.8H260.21a5.72,5.72,0,0,1-5.71-5.71V60.66A5.72,5.72,0,0,1,260.21,55h193.1A5.71,5.71,0,0,1,459,60.66V332.09A5.71,5.71,0,0,1,453.31,337.8ZM260.21,55.2a5.47,5.47,0,0,0-5.46,5.46V332.09a5.47,5.47,0,0,0,5.46,5.46h193.1a5.47,5.47,0,0,0,5.46-5.46V60.66a5.47,5.47,0,0,0-5.46-5.46Z" style="fill:#ebebeb"></path><path d="M41.69,382.4H35.35a198.15,198.15,0,0,0,.26-156.61h6.33A204,204,0,0,1,41.69,382.4Z" style="fill:#ebebeb"></path><path d="M87.19,382.4H80.85a198.15,198.15,0,0,0,.26-156.61h6.33A204,204,0,0,1,87.19,382.4Z" style="fill:#ebebeb"></path><path d="M124.29,310.3a203.88,203.88,0,0,0,15.65,72.1h6.34a198,198,0,0,1-16.15-72.1Z" style="fill:#f5f5f5"></path><path d="M78.79,310.3a203.88,203.88,0,0,0,15.65,72.1h6.34a198,198,0,0,1-16.15-72.1Z" style="fill:#f5f5f5"></path><path d="M126.45,316.5H60.93a6.22,6.22,0,0,1-6.21-6.2h0a6.22,6.22,0,0,1,6.21-6.21h65.52a6.22,6.22,0,0,1,6.21,6.21h0A6.22,6.22,0,0,1,126.45,316.5Z" style="fill:#e0e0e0"></path><path d="M101,279.17H68.64c-6.6,0-13.63-5.4-15.62-12L41.76,229.83c-2-6.6,1.78-12,8.38-12H82.47c6.6,0,13.63,5.4,15.62,12l11.27,37.34C111.35,273.77,107.58,279.17,101,279.17Z" style="fill:#e0e0e0"></path><path d="M448.68,382.4H455a198.15,198.15,0,0,1-.26-156.61h-6.33A204,204,0,0,0,448.68,382.4Z" style="fill:#ebebeb"></path><path d="M403.18,382.4h6.34a198.15,198.15,0,0,1-.26-156.61h-6.33A204,204,0,0,0,403.18,382.4Z" style="fill:#ebebeb"></path><path d="M366.07,310.3a203.88,203.88,0,0,1-15.65,72.1h-6.34a198,198,0,0,0,16.15-72.1Z" style="fill:#f5f5f5"></path><path d="M411.57,310.3a203.88,203.88,0,0,1-15.65,72.1h-6.34a198,198,0,0,0,16.15-72.1Z" style="fill:#f5f5f5"></path><path d="M363.91,316.5h65.53a6.22,6.22,0,0,0,6.2-6.2h0a6.22,6.22,0,0,0-6.2-6.21H363.91a6.23,6.23,0,0,0-6.21,6.21h0A6.23,6.23,0,0,0,363.91,316.5Z" style="fill:#e0e0e0"></path><path d="M389.39,279.17h32.33c6.6,0,13.63-5.4,15.62-12l11.26-37.34c2-6.6-1.77-12-8.37-12H407.89c-6.6,0-13.63,5.4-15.62,12L381,267.17C379,273.77,382.79,279.17,389.39,279.17Z" style="fill:#e0e0e0"></path><polygon points="162.78 260.19 150.78 260.19 150.78 382.4 157.57 382.4 162.78 260.19" style="fill:#f5f5f5"></polygon><polygon points="323.68 260.19 335.67 260.19 335.67 382.4 328.88 382.4 323.68 260.19" style="fill:#f5f5f5"></polygon><rect x="141.31" y="253.88" width="22.67" height="120.57" style="fill:#e0e0e0"></rect><rect x="163.99" y="253.88" width="13.56" height="112.68" style="fill:#ebebeb"></rect><rect x="177.54" y="253.88" width="22.67" height="120.57" style="fill:#e0e0e0"></rect><rect x="200.22" y="253.88" width="13.56" height="112.68" style="fill:#ebebeb"></rect><rect x="213.77" y="253.88" width="22.67" height="120.57" style="fill:#e0e0e0"></rect><rect x="236.45" y="253.88" width="13.56" height="112.68" style="fill:#ebebeb"></rect><rect x="250" y="253.88" width="22.67" height="120.57" style="fill:#e0e0e0"></rect><rect x="272.68" y="253.88" width="13.56" height="112.68" style="fill:#ebebeb"></rect><rect x="286.23" y="253.88" width="22.67" height="120.57" style="fill:#e0e0e0"></rect><rect x="308.91" y="253.88" width="13.56" height="112.68" style="fill:#ebebeb"></rect><rect x="322.46" y="253.88" width="22.67" height="120.57" style="fill:#e0e0e0"></rect><path d="M244.22,334.57l103.36-79.36a1.63,1.63,0,0,0-1-2.93H139.86a1.63,1.63,0,0,0-1,2.93l103.36,79.36A1.64,1.64,0,0,0,244.22,334.57Z" style="fill:#f5f5f5"></path><rect x="79.63" y="71" width="340.74" height="121.64" style="fill:#f0f0f0"></rect><path d="M420.37,197.64a4.59,4.59,0,0,1-1-.1,5,5,0,0,1-.93-.28,5.56,5.56,0,0,1-.87-.46,4.86,4.86,0,0,1-1.38-1.38,5.46,5.46,0,0,1-.46-.86,5.32,5.32,0,0,1-.28-.94,4.59,4.59,0,0,1-.1-1,4.73,4.73,0,0,1,.1-1,5.22,5.22,0,0,1,.28-.93,5.46,5.46,0,0,1,.46-.86,4.57,4.57,0,0,1,.62-.76,5,5,0,0,1,.76-.62,4.83,4.83,0,0,1,.87-.46,4.88,4.88,0,0,1,3.82,0,5.19,5.19,0,0,1,.87.46,5,5,0,0,1,.76.62,4.57,4.57,0,0,1,.62.76,5.46,5.46,0,0,1,.46.86,5.22,5.22,0,0,1,.28.93,4.73,4.73,0,0,1,.1,1,4.59,4.59,0,0,1-.1,1,5.32,5.32,0,0,1-.28.94,5.46,5.46,0,0,1-.46.86,4.86,4.86,0,0,1-1.38,1.38,6,6,0,0,1-.87.46,5,5,0,0,1-.93.28A4.66,4.66,0,0,1,420.37,197.64Z" style="fill:#f0f0f0"></path><path d="M405.35,192.64a5,5,0,0,1,5-5h0a5,5,0,0,1,5,5h0a5,5,0,0,1-5,5h0A5,5,0,0,1,405.35,192.64Zm-10,0a5,5,0,0,1,5-5h0a5,5,0,0,1,5,5h0a5,5,0,0,1-5,5h0A5,5,0,0,1,395.33,192.64Zm-10,0a5,5,0,0,1,5-5h0a5,5,0,0,1,5,5h0a5,5,0,0,1-5,5h0A5,5,0,0,1,385.3,192.64Zm-10,0a5,5,0,0,1,5-5h0a5,5,0,0,1,5,5h0a5,5,0,0,1-5,5h0A5,5,0,0,1,375.28,192.64Zm-10,0a5,5,0,0,1,5-5h0a5,5,0,0,1,5,5h0a5,5,0,0,1-5,5h0A5,5,0,0,1,365.26,192.64Zm-10,0a5,5,0,0,1,5-5h0a5,5,0,0,1,5,5h0a5,5,0,0,1-5,5h0A5,5,0,0,1,355.24,192.64Zm-10,0a5,5,0,0,1,5-5h0a5,5,0,0,1,5,5h0a5,5,0,0,1-5,5h0A5,5,0,0,1,345.22,192.64Zm-10,0a5,5,0,0,1,5-5h0a5,5,0,0,1,5,5h0a5,5,0,0,1-5,5h0A5,5,0,0,1,335.2,192.64Zm-10,0a5,5,0,0,1,5-5h0a5,5,0,0,1,5,5h0a5,5,0,0,1-5,5h0A5,5,0,0,1,325.18,192.64Zm-10,0a5,5,0,0,1,5-5h0a5,5,0,0,1,5,5h0a5,5,0,0,1-5,5h0A5,5,0,0,1,315.15,192.64Zm-10,0a5,5,0,0,1,5-5h0a5,5,0,0,1,5,5h0a5,5,0,0,1-5,5h0A5,5,0,0,1,305.13,192.64Zm-10,0a5,5,0,0,1,5-5h0a5,5,0,0,1,5,5h0a5,5,0,0,1-5,5h0A5,5,0,0,1,295.11,192.64Zm-10,0a5,5,0,0,1,5-5h0a5,5,0,0,1,5,5h0a5,5,0,0,1-5,5h0A5,5,0,0,1,285.09,192.64Zm-10,0a5,5,0,0,1,5-5h0a5,5,0,0,1,5,5h0a5,5,0,0,1-5,5h0A5,5,0,0,1,275.06,192.64Zm-10,0a5,5,0,0,1,5-5h0a5,5,0,0,1,5,5h0a5,5,0,0,1-5,5h0A5,5,0,0,1,265,192.64Zm-10,0a5,5,0,0,1,5-5h0a5,5,0,0,1,5,5h0a5,5,0,0,1-5,5h0A5,5,0,0,1,255,192.64Zm-10,0a5,5,0,0,1,5-5h0a5,5,0,0,1,5,5h0a5,5,0,0,1-5,5h0A5,5,0,0,1,245,192.64Zm-10,0a5,5,0,0,1,5-5h0a5,5,0,0,1,5,5h0a5,5,0,0,1-5,5h0A5,5,0,0,1,235,192.64Zm-10,0a5,5,0,0,1,5-5h0a5,5,0,0,1,5,5h0a5,5,0,0,1-5,5h0A5,5,0,0,1,225,192.64Zm-10,0a5,5,0,0,1,5-5h0a5,5,0,0,1,5,5h0a5,5,0,0,1-5,5h0A5,5,0,0,1,214.94,192.64Zm-10,0a5,5,0,0,1,5-5h0a5,5,0,0,1,5,5h0a5,5,0,0,1-5,5h0A5,5,0,0,1,204.91,192.64Zm-10,0a5,5,0,0,1,5-5h0a5,5,0,0,1,5,5h0a5,5,0,0,1-5,5h0A5,5,0,0,1,194.89,192.64Zm-10,0a5,5,0,0,1,5-5h0a5,5,0,0,1,5,5h0a5,5,0,0,1-5,5h0A5,5,0,0,1,184.87,192.64Zm-10,0a5,5,0,0,1,5-5h0a5,5,0,0,1,5,5h0a5,5,0,0,1-5,5h0A5,5,0,0,1,174.85,192.64Zm-10,0a5,5,0,0,1,5-5h0a5,5,0,0,1,5,5h0a5,5,0,0,1-5,5h0A5,5,0,0,1,164.83,192.64Zm-10,0a5,5,0,0,1,5-5h0a5,5,0,0,1,5,5h0a5,5,0,0,1-5,5h0A5,5,0,0,1,154.81,192.64Zm-10,0a5,5,0,0,1,5-5h0a5,5,0,0,1,5,5h0a5,5,0,0,1-5,5h0A5,5,0,0,1,144.78,192.64Zm-10,0a5,5,0,0,1,5-5h0a5,5,0,0,1,5,5h0a5,5,0,0,1-5,5h0A5,5,0,0,1,134.76,192.64Zm-10,0a5,5,0,0,1,5-5h0a5,5,0,0,1,5,5h0a5,5,0,0,1-5,5h0A5,5,0,0,1,124.74,192.64Zm-10,0a5,5,0,0,1,5-5h0a5,5,0,0,1,5,5h0a5,5,0,0,1-5,5h0A5,5,0,0,1,114.72,192.64Zm-10,0a5,5,0,0,1,5-5h0a5,5,0,0,1,5,5h0a5,5,0,0,1-5,5h0A5,5,0,0,1,104.7,192.64Zm-10,0a5,5,0,0,1,5-5h0a5,5,0,0,1,5,5h0a5,5,0,0,1-5,5h0A5,5,0,0,1,94.67,192.64Zm-10,0a5,5,0,0,1,5-5h0a5,5,0,0,1,5,5h0a5,5,0,0,1-5,5h0A5,5,0,0,1,84.65,192.64Z" style="fill:#f0f0f0"></path><path d="M79.63,197.64a4.66,4.66,0,0,1-1-.1,5,5,0,0,1-.93-.28,6,6,0,0,1-.87-.46,5,5,0,0,1,0-8.31,5.19,5.19,0,0,1,.87-.46,4.36,4.36,0,0,1,.93-.29,5,5,0,1,1,1,9.9Z" style="fill:#f0f0f0"></path><path d="M74.63,182.51a5,5,0,0,1,5-5h0a5,5,0,0,1,5,5h0a5,5,0,0,1-5,5h0A5,5,0,0,1,74.63,182.51Zm0-10.14a5,5,0,0,1,5-5h0a5,5,0,0,1,5,5h0a5,5,0,0,1-5,5h0A5,5,0,0,1,74.63,172.37Zm0-10.14a5,5,0,0,1,5-5h0a5,5,0,0,1,5,5h0a5,5,0,0,1-5,5h0A5,5,0,0,1,74.63,162.23Zm0-10.14a5,5,0,0,1,5-5h0a5,5,0,0,1,5,5h0a5,5,0,0,1-5,5h0A5,5,0,0,1,74.63,152.09Zm0-10.13a5,5,0,0,1,5-5h0a5,5,0,0,1,5,5h0a5,5,0,0,1-5,5h0A5,5,0,0,1,74.63,142Zm0-10.14a5,5,0,0,1,5-5h0a5,5,0,0,1,5,5h0a5,5,0,0,1-5,5h0A5,5,0,0,1,74.63,131.82Zm0-10.14a5,5,0,0,1,5-5h0a5,5,0,0,1,5,5h0a5,5,0,0,1-5,5h0A5,5,0,0,1,74.63,121.68Zm0-10.13a5,5,0,0,1,5-5h0a5,5,0,0,1,5,5h0a5,5,0,0,1-5,5h0A5,5,0,0,1,74.63,111.55Zm0-10.14a5,5,0,0,1,5-5h0a5,5,0,0,1,5,5h0a5,5,0,0,1-5,5h0A5,5,0,0,1,74.63,101.41Zm0-10.14a5,5,0,0,1,5-5h0a5,5,0,0,1,5,5h0a5,5,0,0,1-5,5h0A5,5,0,0,1,74.63,91.27Zm0-10.13a5,5,0,0,1,5-5h0a5,5,0,0,1,5,5h0a5,5,0,0,1-5,5h0A5,5,0,0,1,74.63,81.14Z" style="fill:#f0f0f0"></path><path d="M79.63,76a4.66,4.66,0,0,1-1-.1,5,5,0,0,1-.93-.28,6,6,0,0,1-.87-.46,5.09,5.09,0,0,1-.76-.63,4.57,4.57,0,0,1-.62-.76,5.46,5.46,0,0,1-.46-.86,5,5,0,0,1-.28-.93,4.59,4.59,0,0,1-.1-1,5.05,5.05,0,0,1,1.46-3.54,5.71,5.71,0,0,1,.76-.62,6,6,0,0,1,.87-.46,5,5,0,0,1,.93-.28,5,5,0,0,1,6,4.9,4.59,4.59,0,0,1-.1,1,5,5,0,0,1-.28.93,5.46,5.46,0,0,1-.46.86,4.57,4.57,0,0,1-.62.76A5,5,0,0,1,79.63,76Z" style="fill:#f0f0f0"></path><path d="M405.35,71a5,5,0,0,1,5-5h0a5,5,0,0,1,5,5h0a5,5,0,0,1-5,5h0A5,5,0,0,1,405.35,71Zm-10,0a5,5,0,0,1,5-5h0a5,5,0,0,1,5,5h0a5,5,0,0,1-5,5h0A5,5,0,0,1,395.32,71Zm-10,0a5,5,0,0,1,5-5h0a5,5,0,0,1,5,5h0a5,5,0,0,1-5,5h0A5,5,0,0,1,385.3,71Zm-10,0a5,5,0,0,1,5-5h0a5,5,0,0,1,5,5h0a5,5,0,0,1-5,5h0A5,5,0,0,1,375.28,71Zm-10,0a5,5,0,0,1,5-5h0a5,5,0,0,1,5,5h0a5,5,0,0,1-5,5h0A5,5,0,0,1,365.26,71Zm-10,0a5,5,0,0,1,5-5h0a5,5,0,0,1,5,5h0a5,5,0,0,1-5,5h0A5,5,0,0,1,355.24,71Zm-10,0a5,5,0,0,1,5-5h0a5,5,0,0,1,5,5h0a5,5,0,0,1-5,5h0A5,5,0,0,1,345.22,71Zm-10,0a5,5,0,0,1,5-5h0a5,5,0,0,1,5,5h0a5,5,0,0,1-5,5h0A5,5,0,0,1,335.2,71Zm-10,0a5,5,0,0,1,5-5h0a5,5,0,0,1,5,5h0a5,5,0,0,1-5,5h0A5,5,0,0,1,325.17,71Zm-10,0a5,5,0,0,1,5-5h0a5,5,0,0,1,5,5h0a5,5,0,0,1-5,5h0A5,5,0,0,1,315.15,71Zm-10,0a5,5,0,0,1,5-5h0a5,5,0,0,1,5,5h0a5,5,0,0,1-5,5h0A5,5,0,0,1,305.13,71Zm-10,0a5,5,0,0,1,5-5h0a5,5,0,0,1,5,5h0a5,5,0,0,1-5,5h0A5,5,0,0,1,295.11,71Zm-10,0a5,5,0,0,1,5-5h0a5,5,0,0,1,5,5h0a5,5,0,0,1-5,5h0A5,5,0,0,1,285.09,71Zm-10,0a5,5,0,0,1,5-5h0a5,5,0,0,1,5,5h0a5,5,0,0,1-5,5h0A5,5,0,0,1,275.07,71Zm-10,0a5,5,0,0,1,5-5h0a5,5,0,0,1,5,5h0a5,5,0,0,1-5,5h0A5,5,0,0,1,265,71Zm-10,0a5,5,0,0,1,5-5h0a5,5,0,0,1,5,5h0a5,5,0,0,1-5,5h0A5,5,0,0,1,255,71Zm-10,0a5,5,0,0,1,5-5h0a5,5,0,0,1,5,5h0a5,5,0,0,1-5,5h0A5,5,0,0,1,245,71Zm-10,0a5,5,0,0,1,5-5h0a5,5,0,0,1,5,5h0a5,5,0,0,1-5,5h0A5,5,0,0,1,235,71Zm-10,0a5,5,0,0,1,5-5h0a5,5,0,0,1,5,5h0a5,5,0,0,1-5,5h0A5,5,0,0,1,225,71Zm-10,0a5,5,0,0,1,5-5h0a5,5,0,0,1,5,5h0a5,5,0,0,1-5,5h0A5,5,0,0,1,214.93,71Zm-10,0a5,5,0,0,1,5-5h0a5,5,0,0,1,5,5h0a5,5,0,0,1-5,5h0A5,5,0,0,1,204.91,71Zm-10,0a5,5,0,0,1,5-5h0a5,5,0,0,1,5,5h0a5,5,0,0,1-5,5h0A5,5,0,0,1,194.89,71Zm-10,0a5,5,0,0,1,5-5h0a5,5,0,0,1,5,5h0a5,5,0,0,1-5,5h0A5,5,0,0,1,184.87,71Zm-10,0a5,5,0,0,1,5-5h0a5,5,0,0,1,5,5h0a5,5,0,0,1-5,5h0A5,5,0,0,1,174.85,71Zm-10,0a5,5,0,0,1,5-5h0a5,5,0,0,1,5,5h0a5,5,0,0,1-5,5h0A5,5,0,0,1,164.83,71Zm-10,0a5,5,0,0,1,5-5h0a5,5,0,0,1,5,5h0a5,5,0,0,1-5,5h0A5,5,0,0,1,154.81,71Zm-10,0a5,5,0,0,1,5-5h0a5,5,0,0,1,5,5h0a5,5,0,0,1-5,5h0A5,5,0,0,1,144.78,71Zm-10,0a5,5,0,0,1,5-5h0a5,5,0,0,1,5,5h0a5,5,0,0,1-5,5h0A5,5,0,0,1,134.76,71Zm-10,0a5,5,0,0,1,5-5h0a5,5,0,0,1,5,5h0a5,5,0,0,1-5,5h0A5,5,0,0,1,124.74,71Zm-10,0a5,5,0,0,1,5-5h0a5,5,0,0,1,5,5h0a5,5,0,0,1-5,5h0A5,5,0,0,1,114.72,71Zm-10,0a5,5,0,0,1,5-5h0a5,5,0,0,1,5,5h0a5,5,0,0,1-5,5h0A5,5,0,0,1,104.7,71Zm-10,0a5,5,0,0,1,5-5h0a5,5,0,0,1,5,5h0a5,5,0,0,1-5,5h0A5,5,0,0,1,94.67,71Zm-10,0a5,5,0,0,1,5-5h0a5,5,0,0,1,5,5h0a5,5,0,0,1-5,5h0A5,5,0,0,1,84.65,71Z" style="fill:#f0f0f0"></path><path d="M420.37,76a4.59,4.59,0,0,1-1-.1,5,5,0,0,1-.93-.28,5.56,5.56,0,0,1-.87-.46,4.86,4.86,0,0,1-1.38-1.38,5.56,5.56,0,0,1-.46-.87,5,5,0,0,1-.28-.93,4.59,4.59,0,0,1-.1-1,4.73,4.73,0,0,1,.1-1,5,5,0,0,1,.28-.93,6,6,0,0,1,.46-.87,4.86,4.86,0,0,1,1.38-1.38,5.56,5.56,0,0,1,.87-.46,5,5,0,0,1,3.82,0,6,6,0,0,1,.87.46,5,5,0,0,1,.76.62,5.71,5.71,0,0,1,.62.76,5.56,5.56,0,0,1,.46.87,5,5,0,0,1,.28.93,4.73,4.73,0,0,1,.1,1,4.59,4.59,0,0,1-.1,1,5,5,0,0,1-.28.93,5.56,5.56,0,0,1-.46.87,5.71,5.71,0,0,1-.62.76,5,5,0,0,1-.76.62,6,6,0,0,1-.87.46,5,5,0,0,1-.93.28A4.59,4.59,0,0,1,420.37,76Z" style="fill:#f0f0f0"></path><path d="M415.37,182.51a5,5,0,0,1,5-5h0a5,5,0,0,1,5,5h0a5,5,0,0,1-5,5h0A5,5,0,0,1,415.37,182.51Zm0-10.14a5,5,0,0,1,5-5h0a5,5,0,0,1,5,5h0a5,5,0,0,1-5,5h0A5,5,0,0,1,415.37,172.37Zm0-10.14a5,5,0,0,1,5-5h0a5,5,0,0,1,5,5h0a5,5,0,0,1-5,5h0A5,5,0,0,1,415.37,162.23Zm0-10.13a5,5,0,0,1,5-5h0a5,5,0,0,1,5,5h0a5,5,0,0,1-5,5h0A5,5,0,0,1,415.37,152.1Zm0-10.14a5,5,0,0,1,5-5h0a5,5,0,0,1,5,5h0a5,5,0,0,1-5,5h0A5,5,0,0,1,415.37,142Zm0-10.14a5,5,0,0,1,5-5h0a5,5,0,0,1,5,5h0a5,5,0,0,1-5,5h0A5,5,0,0,1,415.37,131.82Zm0-10.13a5,5,0,0,1,5-5h0a5,5,0,0,1,5,5h0a5,5,0,0,1-5,5h0A5,5,0,0,1,415.37,121.69Zm0-10.14a5,5,0,0,1,5-5h0a5,5,0,0,1,5,5h0a5,5,0,0,1-5,5h0A5,5,0,0,1,415.37,111.55Zm0-10.14a5,5,0,0,1,5-5h0a5,5,0,0,1,5,5h0a5,5,0,0,1-5,5h0A5,5,0,0,1,415.37,101.41Zm0-10.13a5,5,0,0,1,5-5h0a5,5,0,0,1,5,5h0a5,5,0,0,1-5,5h0A5,5,0,0,1,415.37,91.28Zm0-10.14a5,5,0,0,1,5-5h0a5,5,0,0,1,5,5h0a5,5,0,0,1-5,5h0A5,5,0,0,1,415.37,81.14Z" style="fill:#f0f0f0"></path><rect x="197.18" y="-30.55" width="105.64" height="324.74" transform="translate(381.82 -118.18) rotate(90)" style="fill:#fafafa"></rect></g><g id="freepik--Shadow--inject-52"><ellipse id="freepik--path--inject-52" cx="250" cy="416.24" rx="193.89" ry="11.32" style="fill:#f5f5f5"></ellipse></g><g id="freepik--character-1--inject-52"><path d="M193.39,119.65c-7.79,6.42-15.4,16.77-10.94,28s33,12.36,39,7.74c7.8-6,.91-32.72-5.17-32.88C215.82,112.6,199.9,114.28,193.39,119.65Z" style="fill:#263238"></path><path d="M182.48,227.8s3.13,56.94,6.58,87.77c.35,28.95,7,94.35,7,94.35h7.31c1.23-32.45,10.26-62.75,4.26-91.37,14-56.2,4.41-90.71,4.41-90.71Z" style="fill:#ffb573"></path><path d="M190.44,227.84S205.49,291,209.61,317.9c4.34,28.26,10.8,83.1,10.5,92h6.31s10.6-55.48.79-91c8.09-80-11.87-91-11.87-91Z" style="fill:#ffb573"></path><path d="M154.35,154.79c-.47-3.41-6.73-3.7-6.73-3.7l-3-1.51a2.38,2.38,0,0,0-3.23.72l-1,1.66a3,3,0,0,0,1.11,3.74l.91.66a10,10,0,0,0,5.28,1.85l2.77.15a5.09,5.09,0,0,0,1.8-.22,3,3,0,0,0,2.06-3.35Z" style="fill:#ffb573"></path><path d="M187.32,174.74c-.38.39-.58.58-.86.83l-.79.7c-.52.44-1.06.85-1.59,1.26-1.08.8-2.18,1.54-3.31,2.24a45.52,45.52,0,0,1-7.12,3.48,44.15,44.15,0,0,1-15.42,3h-.46a5.83,5.83,0,0,1-.72-.06,6,6,0,0,1-1.37-.37,6.47,6.47,0,0,1-2-1.3,8.81,8.81,0,0,1-1.81-2.56,19.45,19.45,0,0,1-1.39-4.23,49.51,49.51,0,0,1-1-7.62,97.59,97.59,0,0,1,.3-14.72,2.24,2.24,0,0,1,4.45-.06v.06c.54,4.66,1.16,9.39,2,13.92a51.88,51.88,0,0,0,1.53,6.49,12.08,12.08,0,0,0,1.06,2.5c.18.29.36.43.28.33a1.23,1.23,0,0,0-.48-.32,1.9,1.9,0,0,0-.51-.15l-.27,0h0a44,44,0,0,0,6.38-1.06,44.56,44.56,0,0,0,6.1-2,39.86,39.86,0,0,0,5.69-3c.91-.56,1.79-1.15,2.64-1.78.42-.31.82-.63,1.22-.95l.58-.48.44-.39.26-.23a4.49,4.49,0,0,1,6.16,6.53Z" style="fill:#ffb573"></path><path d="M192.24,163.64c-7.91-1.32-16.21,4.06-20.51,8.44-2.22,6.68,4.89,14.8,4.89,14.8s10.13-6.22,13.78-10.47S196.8,164.4,192.24,163.64Z" style="fill:#e0e0e0"></path><path d="M216.74,227.08S227.9,235,230,261.33c.84,10.37,2.35,51.74,5.53,69.54-11.45,8.18-45.73,7.06-51.1,2.28,1.52-36-12.24-83.75-2.26-105.71C198.69,225.41,216.74,227.08,216.74,227.08Z" style="fill:#263238"></path><path d="M205.42,302.59c.15-15.13-2.08-35.95-8.85-48.29C198.88,269.7,205.42,302.59,205.42,302.59Z" style="opacity:0.2"></path><path d="M176.93,175.84c0,8.57-6.83,13.07.9,19.67.46,7.4,1,20.65,3.27,32.72,2.35,3.27,19.53,3,37.38-.87-2.33-10.35-1.47-27.21,4.64-50.27a9.59,9.59,0,0,0-7.64-11.81c-1.47-.26-3-.5-4.62-.7A117.88,117.88,0,0,0,194,163.32c-1.82,0-3.71.12-5.51.24A12.32,12.32,0,0,0,176.93,175.84Z" style="fill:#e0e0e0"></path><rect x="194.42" y="192.67" width="24.44" height="33.67" rx="1.48" transform="translate(-41.17 50.82) rotate(-12.76)" style="fill:#407BFF"></rect><path d="M196.07,174.37s-3.39,4.06-6.19,5l-.32,2a15.18,15.18,0,0,0,9.23-4.76Z" style="fill:#407BFF"></path><path d="M186.86,171.92s-.14,5.28,1.32,7.86l-1.09,1.72a15.21,15.21,0,0,1-3.78-9.68Z" style="fill:#407BFF"></path><path d="M210.17,145.56c-1.34,5.32-2.91,15.13.69,19,0,0-13.41,3.66-22.15,15.66-4-12.61,5.33-16.92,5.33-16.92,6.11-1,6.19-5.46,5.35-9.74Z" style="fill:#ffb573"></path><path d="M205.78,148.83l-6.38,4.75a17.51,17.51,0,0,1,.36,3c2.32-.16,5.62-2.45,6-4.84A8.43,8.43,0,0,0,205.78,148.83Z" style="opacity:0.2"></path><path d="M216.39,136.08c-2.57,8.62-3.47,12.33-8.88,15.72-8.14,5.09-18-.15-18.06-9.41,0-8.34,4.17-21,13.44-22.38S219,127.45,216.39,136.08Z" style="fill:#ffb573"></path><path d="M209.67,123.49c-2.43,8.31-.35,17,4.61,18,6.89-2.57,6.55-10.22,4.79-13.72S211.07,118.7,209.67,123.49Z" style="fill:#263238"></path><path d="M213.44,138.42c-3.83,1.27-4.57,3.84-4.57,3.84s2.63-1.86,5.15-1.51A5.4,5.4,0,0,1,213.44,138.42Z" style="fill:#263238"></path><path d="M203.87,135.27c-.17.71-.68,1.19-1.15,1.08s-.72-.8-.55-1.51.68-1.2,1.15-1.08S204,134.56,203.87,135.27Z" style="fill:#263238"></path><path d="M195,133.16c-.17.71-.68,1.19-1.15,1.07s-.72-.79-.55-1.51.68-1.19,1.15-1.07S195.18,132.44,195,133.16Z" style="fill:#263238"></path><path d="M194.67,131.74l-1.61-.93S193.63,132.37,194.67,131.74Z" style="fill:#263238"></path><path d="M196.68,134.32a18.89,18.89,0,0,1-3.62,3.9,3.26,3.26,0,0,0,2.45,1.13Z" style="fill:#ed893e"></path><path d="M216.44,144.73a5.69,5.69,0,0,1-4.29,2c-2.09-.06-2.45-2.46-1.3-4.43,1-1.78,3.36-3.89,5.18-2.88S217.86,143.11,216.44,144.73Z" style="fill:#ffb573"></path><path d="M205.54,132.21a.46.46,0,0,1-.23-.26,3.58,3.58,0,0,0-2.16-2.3.44.44,0,0,1-.31-.53.41.41,0,0,1,.52-.3,4.42,4.42,0,0,1,2.77,2.87.41.41,0,0,1-.27.54A.44.44,0,0,1,205.54,132.21Z" style="fill:#263238"></path><path d="M191.78,128.9a.45.45,0,0,1-.31-.11.44.44,0,0,1,0-.61,4.23,4.23,0,0,1,3.64-1.44.45.45,0,0,1,.37.5.43.43,0,0,1-.49.36,3.33,3.33,0,0,0-2.87,1.16A.44.44,0,0,1,191.78,128.9Z" style="fill:#263238"></path><path d="M203.52,133.86l-1.61-.94S202.48,134.49,203.52,133.86Z" style="fill:#263238"></path><path d="M203,204.86,195,203.31l.9,9.19s6-.26,9.42-3l.32-1.2C205.27,206.31,204.82,205.58,203,204.86Z" style="fill:#ffb573"></path><path d="M190.19,207.23l.93,3.89a2.3,2.3,0,0,0,2.58,1.73l2.24-.35-.9-9.19-3.41,1.24A2.29,2.29,0,0,0,190.19,207.23Z" style="fill:#ffb573"></path><path d="M220.89,172a119.51,119.51,0,0,1,6.35,14.4c.9,2.47,1.75,5,2.43,7.59a47.06,47.06,0,0,1,1.5,8.2c.06.73.09,1.48.1,2.24v.27l0,.43a4.43,4.43,0,0,1-.16.87,5.67,5.67,0,0,1-.68,1.56,6.25,6.25,0,0,1-1.78,1.81,9.38,9.38,0,0,1-2.84,1.27,19.1,19.1,0,0,1-2.33.49,47.1,47.1,0,0,1-8.22.31,106.38,106.38,0,0,1-15.49-1.86,2.23,2.23,0,0,1,.38-4.43h0c5-.09,10.06-.22,14.93-.59a47.28,47.28,0,0,0,6.93-1,10.22,10.22,0,0,0,1.37-.42,1.56,1.56,0,0,0,.6-.32,1.27,1.27,0,0,0-.46.47,2.53,2.53,0,0,0-.3.68,3.28,3.28,0,0,0-.08.41,1.27,1.27,0,0,0,0,.2v0c0-.51-.09-1-.17-1.56a66.61,66.61,0,0,0-4.07-13.51c-1.81-4.51-3.88-9.1-6-13.43l0-.08a4.5,4.5,0,0,1,8-4.06Z" style="fill:#ffb573"></path><path d="M216,165.59c5.73,1.06,8.28,6.21,12.44,16.49C227.17,189,217,192.64,217,192.64s-5.84-10.35-7-15.84S210.22,164.52,216,165.59Z" style="fill:#e0e0e0"></path><path d="M203.89,410a.62.62,0,0,0-.66-.41l-6.78-.1a3.72,3.72,0,0,0-2,.43,25.39,25.39,0,0,1-10.22,3.65c-1.44.22-.79,2.65,2.61,2.69,5.61.06,6.63-.36,11.42-.31,4.09.05,2.14.23,5.39.31.78,0,1.42-.49,1.32-1Z" style="fill:#263238"></path><path d="M227.28,410a.63.63,0,0,0-.66-.41l-5.53-.1a3.66,3.66,0,0,0-2,.43c-2,1.39-1.72,3-6.28,3.65-1.44.22-.73,2.65,2.67,2.69,5.61.06,5.27-.31,7.55-.31s.88.23,4.14.31c.78,0,1.41-.49,1.29-1Z" style="fill:#263238"></path><path d="M192.38,175.91c2.84.12,8.05,2.45,9.72,4.94,2.36-2.45,11.58-8.14,11.74-15.85a8,8,0,0,0-4.09-2.1S197.45,168.85,192.38,175.91Z" style="fill:#fafafa"></path><path d="M187.78,175.51s-.77-6.23,6.77-12.28c-.76-.62-3.74.08-3.74.08s-8.81,3.79-8.55,13.6A7.57,7.57,0,0,1,187.78,175.51Z" style="fill:#fafafa"></path><path d="M186.66,178.15c-1.09.51-1.52,4.06,0,4.89s1.37-2.56,2.25-3.72S188.57,177.26,186.66,178.15Z" style="fill:#407BFF"></path><path d="M188,179.53c-.78,1,.23,4.4,1.91,4.39s.23-3,.56-4.48S189.33,177.77,188,179.53Z" style="fill:#407BFF"></path><path d="M188.23,182.06c-1.87-2.89-2,12.34,2.53,18.34C190.46,194.49,193.63,186.11,188.23,182.06Z" style="fill:#407BFF"></path><path d="M188.06,181.93c-.83-2.94-5,9.94-2.69,16.23C186.68,193.07,191.57,186.79,188.06,181.93Z" style="fill:#407BFF"></path><path d="M202,142.1a8.13,8.13,0,0,0,1.25-.68.24.24,0,0,0,0-.34.27.27,0,0,0-.36-.06,7.18,7.18,0,0,1-6.14.89.25.25,0,0,0-.33.13.25.25,0,0,0,.15.32A7.6,7.6,0,0,0,202,142.1Z" style="fill:#263238"></path><rect x="121.89" y="149.15" width="51.09" height="1.66" style="fill:#407BFF"></rect><polygon points="171.76 150.81 123.11 150.81 125.25 151.97 169.62 151.97 171.76 150.81" style="fill:#407BFF"></polygon><polygon points="171.76 150.81 123.11 150.81 125.25 151.97 169.62 151.97 171.76 150.81" style="opacity:0.2"></polygon><path d="M138.26,104.68h0a1.14,1.14,0,0,1-1.13-1.13V99.76a1.14,1.14,0,0,1,1.13-1.13h0a1.14,1.14,0,0,1,1.13,1.13v3.79A1.14,1.14,0,0,1,138.26,104.68Z" style="fill:#263238"></path><rect x="137.13" y="97.46" width="2.26" height="3.64" rx="0.88" transform="translate(237.54 -38.98) rotate(90)" style="fill:#263238"></rect><path d="M140.07,112.91V102.1a.45.45,0,0,0-.44-.45h-2.74a.45.45,0,0,0-.44.45v10.81a5.75,5.75,0,0,1-1.93,4.3h0a5.82,5.82,0,0,0-1.93,4.31v27.73h11.33V121.52a5.79,5.79,0,0,0-1.93-4.31h0A5.77,5.77,0,0,1,140.07,112.91Z" style="fill:#407BFF"></path><rect x="136.44" y="124.8" width="7.48" height="17.93" style="fill:#e0e0e0"></rect><path d="M154.54,149.15h-1.35A10.05,10.05,0,0,0,154.54,149.15Z" style="fill:#407BFF"></path><path d="M162.69,149.15h-1.36A10.23,10.23,0,0,0,162.69,149.15Z" style="fill:#407BFF"></path><path d="M152.73,128v4.55c0,3.62,2.06,6.63,4.67,7v8c0,1.23-1.2,1.58-2.13,1.66h5.33c-.93-.08-2.13-.43-2.13-1.66v-8c2.61-.36,4.67-3.37,4.67-7V128Z" style="fill:#407BFF;opacity:0.2"></path><path d="M214.69,123.72c-4,1.7-17.4,2.22-22.65,1.08C197.47,117.13,209.67,114.88,214.69,123.72Z" style="fill:#263238"></path><path d="M227.3,151.12a.26.26,0,0,1-.2-.1c-.13-.18-3.08-4.52-3.14-16.14,0-4.85-1.49-8.75-4-10.72a5.41,5.41,0,0,0-4.75-1.08.25.25,0,1,1-.11-.49,6,6,0,0,1,5.16,1.17c2.65,2.07,4.18,6.12,4.21,11.11.06,11.44,3,15.82,3,15.86a.25.25,0,0,1-.06.35A.28.28,0,0,1,227.3,151.12Z" style="fill:#263238"></path></g><g id="freepik--character-2--inject-52"><path d="M299.26,92.25c2.79,3.82,2.78,9.77,1.83,13-5-2.27-4.22-8.79-4.22-8.79Z" style="fill:#263238"></path><path d="M314.21,139.53l2.88,3.17,3,3.22c2,2.13,4,4.21,6.06,6.21,1,1,2,2,3.07,2.88s2,1.82,3.05,2.63,2,1.53,2.93,2.15a16.29,16.29,0,0,0,2.2,1.24l-1.53-.24a2,2,0,0,0-1.3.29s.24,0,.58-.2a14.61,14.61,0,0,0,2.57-2,62.89,62.89,0,0,0,5.73-6.23c1.91-2.29,3.77-4.73,5.62-7.2s3.7-5,5.52-7.49l.09-.11a4.51,4.51,0,0,1,7.92,4,98.61,98.61,0,0,1-3.51,9.31c-1.31,3-2.76,6-4.4,9a61.84,61.84,0,0,1-5.88,8.87,30.09,30.09,0,0,1-4.44,4.48,17,17,0,0,1-3.53,2.2,13.1,13.1,0,0,1-5.93,1.22,5.92,5.92,0,0,1-1.12-.15l-.42-.09a27.82,27.82,0,0,1-6.31-2.35,44.64,44.64,0,0,1-4.85-2.87,76.92,76.92,0,0,1-8.14-6.31c-2.52-2.19-4.86-4.48-7.13-6.81-1.12-1.18-2.24-2.36-3.31-3.58s-2.1-2.41-3.23-3.8A9,9,0,0,1,314,139.33Z" style="fill:#e0e0e0"></path><path d="M359.07,143.36l8.91.43-2.89-12s-8.29.61-9.62,4.87a2.16,2.16,0,0,0,.08,1.44l1.64,3.93A2.15,2.15,0,0,0,359.07,143.36Z" style="fill:#ff8b7b"></path><path d="M375.93,136.67l-1.72-4a3.58,3.58,0,0,0-4.13-2.06l-5,1.23,2.89,12,6-2.42A3.57,3.57,0,0,0,375.93,136.67Z" style="fill:#ff8b7b"></path><path d="M293.14,309.54c-9.46-41.61-15.31-91.78-15.31-91.78l38.79-.62s-.54,67.61-.46,95.93c.1,29.45,2.14,94.26,2.14,94.26H306.53S291.34,345.94,293.14,309.54Z" style="fill:#263238"></path><path d="M290.12,252.13l-6.14,9.1c1.83,11.36,4,23.87,6.53,36.13C291.57,278.52,291.39,256.63,290.12,252.13Z"></path><path d="M334,413.1s-16.21-3.82-17.43-6.39h-9l.06,9.53h5.56l.85-.88,1.41.88c4.5,0,16.46-.18,19.29-1.19A2.11,2.11,0,0,0,334,413.1Z" style="fill:#263238"></path><path d="M257.06,308.37c4.49-41.85,4.35-69.81,9.82-90.43l35.32-.53s-14.71,66.38-21.54,94-18.52,95.9-18.52,95.9h-10.9S247.81,340.73,257.06,308.37Z" style="fill:#263238"></path><path d="M264.08,226.09c-.78,5-3.56,34.58-6.44,45.35,23.55,10.45,59.55,6.34,60.66-.44-.33-12.56-1-44.91-1-44.91Z" style="fill:#e0e0e0"></path><path d="M265.39,231.58a35.79,35.79,0,0,0,5.91,7.25S266.22,237.92,265.39,231.58Z" style="opacity:0.1"></path><path d="M312.73,238.55a29.29,29.29,0,0,0,3.26-6.47S316.22,237.19,312.73,238.55Z" style="opacity:0.1"></path><path d="M265.61,235.35a23.73,23.73,0,0,0,2.39,5.72A5.27,5.27,0,0,1,265.61,235.35Z" style="opacity:0.1"></path><path d="M272.3,413.1s-10.11-3.82-11.27-6.39h-9l-.18,9.53h7.37l.87-.88,1.39.88c4.5,0,8.65-.18,11.51-1.19A2.05,2.05,0,0,0,272.3,413.1Z" style="fill:#263238"></path><path d="M265.58,134.45c12.48-1.55,30.3-1.4,42.25.66a14.47,14.47,0,0,1,11.74,12.17c2.51,18.05.35,49.59-1.25,81.34-27.3,9.34-56.1-.13-56.1-.13-1-6.4,1.24-27.39,2.74-38.59-2.25-11.57-7-24.82-10.18-40.19A12.59,12.59,0,0,1,265.58,134.45Z" style="fill:#263238"></path><path d="M265.58,134.45c12.48-1.55,30.3-1.4,42.25.66a14.47,14.47,0,0,1,11.74,12.17c2.51,18.05.35,49.59-1.25,81.34-27.3,9.34-56.1-.13-56.1-.13-1-6.4,1.24-27.39,2.74-38.59-2.25-11.57-7-24.82-10.18-40.19A12.59,12.59,0,0,1,265.58,134.45Z" style="fill:#fff;opacity:0.1"></path><path d="M277.93,110.62l14.2,11.65c-1.84,4.89-2.42,10,5.6,11.93,2,2.65-1,7.3-4.56,9.11-8.42-1.92-13.27-4.18-16.54-8.67C277.66,131.12,279.3,117.85,277.93,110.62Z" style="fill:#ff8b7b"></path><path d="M283.85,115.48l8.28,6.78a18.31,18.31,0,0,0-1,3.5c-3.21.23-7.67-3-7.87-5.94A11.93,11.93,0,0,1,283.85,115.48Z" style="opacity:0.2"></path><path d="M275.89,102.68c1.3,8.91,1.6,14.19,6.51,18.37,7.39,6.29,18.11,1.17,19.51-8,1.25-8.23-1.08-21.42-10.15-24.18A12.41,12.41,0,0,0,275.89,102.68Z" style="fill:#ff8b7b"></path><path d="M275.81,106.79a7,7,0,0,0,7.37,1.89c-2.14-2.17-.06-10.11-2.2-13.34,4.14.82,20.26,3.16,21.8-2.43,1.67-6-5-10.79-8.74-11.24,1.1,2.5,1,4.31-3.1,3.5s-21-4.71-19.13,3.21c-5.44,0-5.81,7.92-1.83,11.71A41,41,0,0,1,275.81,106.79Z" style="fill:#263238"></path><path d="M272.81,88c-3.26-.81-2.24-3.81-1.51-4.12-3.05.74-4.16,3.74-.48,5.12S272.81,88,272.81,88Z" style="fill:#263238"></path><path d="M273.38,108.15a7.74,7.74,0,0,0,3.82,4.57c2.45,1.25,4.23-.81,4-3.39-.19-2.33-1.68-5.78-4.36-6A3.53,3.53,0,0,0,273.38,108.15Z" style="fill:#ff8b7b"></path><path d="M288.4,103c.06.73.5,1.29,1,1.25s.82-.68.76-1.4-.5-1.29-1-1.25S288.34,102.27,288.4,103Z" style="fill:#263238"></path><path d="M297.12,102.79c.06.73.5,1.29,1,1.24s.81-.67.75-1.4-.5-1.28-1-1.24S297.06,102.06,297.12,102.79Z" style="fill:#263238"></path><path d="M295.35,103.77a25.78,25.78,0,0,0,4,5.92c-1.19,1.32-3.43,1-3.43,1Z" style="fill:#ff5652"></path><path d="M287.05,100.68a.39.39,0,0,1-.21,0,.42.42,0,0,1-.24-.56,4.33,4.33,0,0,1,2.91-2.66.43.43,0,0,1,.17.85h0a3.43,3.43,0,0,0-2.29,2.13A.43.43,0,0,1,287.05,100.68Z" style="fill:#263238"></path><path d="M302.18,99.52a.42.42,0,0,1-.36-.2,3.38,3.38,0,0,0-2.59-1.69.43.43,0,0,1-.42-.44.44.44,0,0,1,.45-.42,4.27,4.27,0,0,1,3.3,2.1.44.44,0,0,1-.14.59A.36.36,0,0,1,302.18,99.52Z" style="fill:#263238"></path><path d="M276.63,134.64s14.57,22.14,20.11,37.76c5.46-18.33,6.09-33,1-38.2C296.1,136.27,289.5,139.07,276.63,134.64Z" style="fill:#e0e0e0"></path><path d="M271.66,151l-1.41,4-1.4,4.16c-.93,2.77-1.78,5.55-2.57,8.28-.4,1.37-.75,2.73-1.07,4.07s-.63,2.67-.85,3.94-.39,2.5-.5,3.6a18.73,18.73,0,0,0,0,2.53l-.52-1.46c-.42-.79-.85-1-.87-1s.14.2.45.42a14.44,14.44,0,0,0,2.95,1.32A63,63,0,0,0,274,183c2.93.58,5.95,1,9,1.5s6.19.85,9.21,1.28l.14,0a4.51,4.51,0,0,1,.23,8.89,98.71,98.71,0,0,1-9.85,1.36c-3.3.3-6.63.45-10,.43a62.16,62.16,0,0,1-10.6-.93,30.61,30.61,0,0,1-6-1.77,16.53,16.53,0,0,1-3.62-2.06,13.07,13.07,0,0,1-3.9-4.62,6,6,0,0,1-.41-1.06l-.11-.41a28,28,0,0,1-.95-6.67,44.68,44.68,0,0,1,.21-5.63A75.84,75.84,0,0,1,249,163.16c.71-3.26,1.61-6.41,2.58-9.52.5-1.55,1-3.09,1.56-4.62s1.12-3,1.81-4.65a9,9,0,0,1,16.81,6.41Z" style="fill:#e0e0e0"></path><path d="M293.63,187.07l8.84,1.1-4.88,11.31s-8.07-2-8.65-6.44a2.11,2.11,0,0,1,.33-1.4l2.28-3.59A2.16,2.16,0,0,1,293.63,187.07Z" style="fill:#ff8b7b"></path><path d="M309.1,196.54l-2.38,3.68a3.57,3.57,0,0,1-4.42,1.32l-4.71-2.06,4.88-11.31,5.51,3.41A3.56,3.56,0,0,1,309.1,196.54Z" style="fill:#ff8b7b"></path><path d="M277.34,131.2a8.31,8.31,0,0,0-4.83,2.6,29,29,0,0,0,16,10.7c-.46-1.53.92-6,2.44-7.6C285.36,136.07,277.34,131.2,277.34,131.2Z" style="fill:#fafafa"></path><path d="M292.7,131.75a13.75,13.75,0,0,1,5.29,2.17s5.6,6.25-1,9.78c.45-1.53-3-5.61-6.09-6.8C296.48,136.07,292.7,131.75,292.7,131.75Z" style="fill:#fafafa"></path><path d="M291.52,140.46c-4.42-2.37-9.89-4.94-8.37-.79s-.49,5.59,1.49,7,6-2.46,7.33-3S291.52,140.46,291.52,140.46Z" style="fill:#407BFF"></path><path d="M294.65,140.43c3.37-2.27,7.59-4.73,6.84-.68s1.11,5.46-.36,6.83-5.25-2.46-6.45-3S294.65,140.43,294.65,140.43Z" style="fill:#407BFF"></path><path d="M290.92,140.14c1-.6,3.44-1.36,4.65.27s.82,4.36-.85,4.69a3.37,3.37,0,0,1-3.26-1.15A3,3,0,0,0,290.92,140.14Z" style="fill:#407BFF"></path><polygon points="262.75 407.63 250.62 407.97 249.98 401.1 264.07 401.94 262.75 407.63"></polygon><polygon points="318.73 407.61 305.63 407.97 304.18 402.02 318.81 400.6 318.73 407.61"></polygon><path d="M290.18,184.74a82.19,82.19,0,0,0-18.82-3.25c-1.36.08-1.88,30.81-1.77,43.38,0,1.7,19.56,1.36,24.56.59.28-3.51.34-29.13,1.64-37.14a2.84,2.84,0,0,0-1.7-3.06A7.94,7.94,0,0,0,290.18,184.74Z" style="fill:#fff"></path><rect x="337.05" y="135.55" width="55.52" height="1.58" style="fill:#407BFF"></rect><polygon points="391.41 137.13 338.21 137.13 340.25 138.24 389.38 138.24 391.41 137.13" style="fill:#407BFF"></polygon><polygon points="391.41 137.13 338.21 137.13 340.25 138.24 389.38 138.24 391.41 137.13" style="opacity:0.2"></polygon><path d="M367.1,113.23a2.29,2.29,0,1,1-2.29-2.28A2.28,2.28,0,0,1,367.1,113.23Z" style="fill:#407BFF"></path><path d="M388.81,128.22a25.21,25.21,0,0,0-8.42-12.08l.62-.79a26.22,26.22,0,0,1,8.76,12.57Z" style="fill:#407BFF"></path><path d="M376.92,113.84a24.93,24.93,0,0,0-3.49-1.59l.34-.94A26.39,26.39,0,0,1,377.4,113Z" style="fill:#407BFF"></path><path d="M364.81,113.23a22.71,22.71,0,0,0-22.71,22.71h45.42A22.71,22.71,0,0,0,364.81,113.23Z" style="fill:#407BFF"></path><path d="M345.23,133.91h5.87a.88.88,0,0,0,.85-.72c1.18-6.22,4.89-11.64,10.79-16.35a.79.79,0,0,0-.59-1.4,20.73,20.73,0,0,0-17.79,17.49A.87.87,0,0,0,345.23,133.91Z" style="fill:#fff;opacity:0.30000000000000004"></path><path d="M292.56,113.29a7.5,7.5,0,0,0,1.4-.07.24.24,0,0,0,.19-.28.28.28,0,0,0-.3-.21,7,7,0,0,1-5.82-1.82.24.24,0,0,0-.35,0,.26.26,0,0,0,0,.35A7.43,7.43,0,0,0,292.56,113.29Z" style="fill:#263238"></path></g></svg>