<?xml version="1.0" standalone="no"?>
<!DOCTYPE svg PUBLIC "-//W3C//DTD SVG 20010904//EN"
 "http://www.w3.org/TR/2001/REC-SVG-20010904/DTD/svg10.dtd">
<svg version="1.0" xmlns="http://www.w3.org/2000/svg"
 width="100.000000pt" height="100.000000pt" viewBox="0 0 100.000000 100.000000"
 preserveAspectRatio="xMidYMid meet">

<g transform="translate(0.000000,100.000000) scale(0.100000,-0.100000)"
fill="#000000" stroke="none">
<path d="M0 500 l0 -500 500 0 500 0 0 500 0 500 -500 0 -500 0 0 -500z m565
225 c38 -37 35 -95 -6 -129 -19 -17 -43 -26 -64 -26 -18 0 -40 -3 -48 -6 -15
-5 -21 13 -34 98 -4 30 -1 41 21 62 35 36 97 36 131 1z m143 -187 c3 -17 -25
-52 -49 -60 -8 -3 -10 -9 -6 -14 4 -4 17 -3 27 4 16 10 20 10 20 -1 0 -35 -62
-52 -74 -20 -6 14 -8 14 -22 -5 -8 -12 -24 -22 -35 -22 -10 0 -19 -4 -19 -8 0
-5 21 -6 48 -2 52 6 82 3 82 -9 0 -10 -50 -21 -96 -21 -21 0 -37 -6 -43 -17
-8 -14 -13 -15 -19 -6 -4 7 -19 10 -32 8 -14 -3 -39 -8 -57 -11 -25 -5 -33
-12 -38 -35 -7 -33 -59 -81 -79 -73 -41 16 -21 76 37 113 36 24 52 56 22 45
-21 -8 -29 19 -18 63 12 50 38 59 29 9 -9 -49 6 -45 25 7 17 45 52 67 42 25
-6 -22 -5 -22 15 3 13 16 32 27 46 27 24 0 25 -3 21 -47 l-4 -46 10 48 c7 27
17 47 24 47 7 0 20 3 29 6 11 4 19 -1 24 -16 l8 -22 18 27 c19 29 59 32 64 3z"/>
<path d="M460 683 c0 -6 7 -16 15 -23 8 -7 15 -17 15 -22 0 -6 -7 -8 -15 -4
-8 3 -15 1 -15 -4 0 -6 9 -10 20 -10 11 0 20 5 20 11 0 6 -9 22 -20 36 -11 14
-20 21 -20 16z"/>
<path d="M485 680 c3 -5 8 -10 11 -10 2 0 4 5 4 10 0 6 -5 10 -11 10 -5 0 -7
-4 -4 -10z"/>
<path d="M534 665 c-9 -14 -15 -27 -13 -30 3 -2 12 10 21 26 21 36 15 39 -8 4z"/>
<path d="M665 520 c-3 -5 -1 -10 4 -10 6 0 11 5 11 10 0 6 -2 10 -4 10 -3 0
-8 -4 -11 -10z"/>
<path d="M571 488 c-6 -17 -9 -34 -6 -36 9 -9 23 11 30 41 10 38 -10 35 -24
-5z"/>
<path d="M480 489 c-7 -11 -9 -28 -5 -37 5 -15 7 -15 14 -2 5 8 12 25 15 38 9
28 -9 29 -24 1z"/>
<path d="M433 436 c-7 -22 -11 -42 -8 -44 8 -8 105 10 105 20 0 6 -15 7 -39 3
-39 -6 -40 -6 -43 27 l-3 33 -12 -39z"/>
<path d="M337 312 c-23 -25 -24 -50 -1 -32 20 17 37 50 26 50 -5 0 -16 -8 -25
-18z"/>
</g>
</svg>
